Coordinates
version=1
nRows=8
nColumns=63
inDegrees=yes

Units are S.I. units (second, meters, Newtons, ...)
If the header above contains a line with 'inDegrees', this indicates whether rotational values are in degrees (yes) or radians (no).

endheader
time	pelvis_tilt	pelvis_list	pelvis_rotation	pelvis_tx	pelvis_ty	pelvis_tz	hip_flexion_r	hip_adduction_r	hip_rotation_r	knee_angle_r	knee_angle_r_beta	ankle_angle_r	subtalar_angle_r	mtp_angle_r	hip_flexion_l	hip_adduction_l	hip_rotation_l	knee_angle_l	knee_angle_l_beta	ankle_angle_l	subtalar_angle_l	mtp_angle_l	L5_S1_Flex_Ext	L5_S1_Lat_Bending	L5_S1_axial_rotation	L4_L5_Flex_Ext	L4_L5_Lat_Bending	L4_L5_axial_rotation	L3_L4_Flex_Ext	L3_L4_Lat_Bending	L3_L4_axial_rotation	L2_L3_Flex_Ext	L2_L3_Lat_Bending	L2_L3_axial_rotation	L1_L2_Flex_Ext	L1_L2_Lat_Bending	L1_L2_axial_rotation	L1_T12_Flex_Ext	L1_T12_Lat_Bending	L1_T12_axial_rotation	Abs_r3	Abs_r2	Abs_r1	Abs_t1	Abs_t2	neck_flexion	neck_bending	neck_rotation	arm_flex_r	arm_add_r	arm_rot_r	elbow_flex_r	pro_sup_r	wrist_flex_r	wrist_dev_r	arm_flex_l	arm_add_l	arm_rot_l	elbow_flex_l	pro_sup_l	wrist_flex_l	wrist_dev_l
      2.08474576	      1.74426827	     -9.63499332	     88.56981305	      0.17189962	      0.95563720	      0.31148405	     -1.03007707	     -0.78094360	      8.24375997	      0.90033516	      0.01571381	     18.54423919	     -0.60215813	      0.00000000	     -0.41784207	     -2.58906042	    -13.05226573	      1.64868094	      0.02877491	     20.10187701	     14.64271037	      0.00000000	      0.18284221	      0.22513948	      0.89145344	      0.33955626	      0.29943551	      0.94716928	      0.30039146	      0.54740413	      0.94716928	      0.20897036	      0.54740413	      0.78002176	      0.16978727	      0.45910443	      0.72430592	      0.10447604	      0.34874106	      0.66859008	      1.30602359	      2.54682283	      4.95799657	      0.00000000	      0.00000000	     26.92787520	     -2.00052184	     -3.60833157	     11.05503495	     -8.72811878	     67.38982564	     40.10835307	     86.79014365	     -9.55506758	     -1.16734558	     14.71775289	     -8.86813054	     66.73027362	     43.53877719	     64.36422328	      6.73451291	     13.11232105
      2.10169492	      1.75930202	     -9.58356435	     88.39897774	      0.17219611	      0.95557100	      0.31138782	     -1.12249261	     -0.74381432	     10.40750421	      0.81606389	      0.01424300	     18.01800765	     -3.42916379	      0.00000000	     -0.50449243	     -2.61334246	    -13.87572796	      1.67941087	      0.02931125	     20.42770067	     15.44845884	      0.00000000	      0.18919672	      0.22576897	      0.91861002	      0.35135723	      0.30027273	      0.97602315	      0.31083129	      0.54893467	      0.97602315	      0.21623293	      0.54893467	      0.80378377	      0.17568807	      0.46038808	      0.74637064	      0.10810700	      0.34971613	      0.68895752	      1.35141324	      2.55394374	      5.10903336	      0.00000000	      0.00000000	     26.87823772	     -2.28022234	     -4.19914570	     10.93729153	     -8.85383996	     67.23333554	     40.49740015	     86.75731534	     -9.01694946	     -0.81867834	     14.57114248	     -8.88748688	     66.12382548	     43.58080193	     64.53795289	      6.81323478	     13.19832077
      2.11864407	      1.77080115	     -9.55280145	     88.56080807	      0.17211355	      0.95553643	      0.31146368	     -1.16820783	     -0.74692479	      9.29166927	      0.85677319	      0.01495351	     18.37760006	     -1.94589619	      0.00000000	     -0.50499155	     -2.62520664	    -13.56685005	      1.69078366	      0.02950974	     20.62290647	     15.21375295	      0.00000000	      0.19403566	      0.22091633	      0.88136819	      0.36034362	      0.29381872	      0.93645370	      0.31878118	      0.53713596	      0.93645370	      0.22176335	      0.53713596	      0.77119716	      0.18018151	      0.45049258	      0.71611165	      0.11087198	      0.34219939	      0.66102614	      1.38597731	      2.49904968	      4.90190544	      0.00000000	      0.00000000	     26.73545333	     -2.50030939	     -4.94894104	     11.06322541	     -8.89763904	     67.58275499	     40.65339952	     86.93789065	     -8.56484998	     -0.75095695	     14.73852115	     -9.02981079	     66.58747881	     43.71910463	     63.17849479	      6.15198626	     13.23667783
      2.13559322	      1.70871636	     -9.52548678	     88.34256596	      0.17246421	      0.95541171	      0.31133069	     -1.24801224	     -0.80596098	     11.09116817	      0.78843115	      0.01376072	     17.87877307	     -4.32788217	      0.00000000	     -0.57293710	     -2.56558626	    -14.32583606	      1.70819223	      0.02981358	     20.91209528	     15.88617447	      0.00000000	      0.19944427	      0.21067466	      0.91335851	      0.37038796	      0.28019730	      0.97044342	      0.32766699	      0.51223437	      0.97044342	      0.22794486	      0.51223437	      0.79918870	      0.18520395	      0.42960777	      0.74210379	      0.11396246	      0.32633505	      0.68501888	      1.42461049	      2.38319389	      5.07982602	      0.00000000	      0.00000000	     26.63486079	     -2.60344030	     -5.42199403	     10.96295878	     -8.97093890	     67.45536432	     40.95895774	     86.76222528	     -8.28842234	     -0.51409595	     14.78360138	     -9.10900264	     66.73938278	     43.75683296	     62.67023991	      5.99902712	     13.14763436
      2.15254237	      1.62518665	     -9.49787886	     88.35947386	      0.17247998	      0.95526659	      0.31123012	     -1.33862589	     -0.90409801	     11.49618082	      0.77254299	      0.01348342	     17.76602837	     -5.04571107	      0.00000000	     -0.60760137	     -2.47807354	    -14.34309193	      1.70769288	      0.02980486	     21.08636766	     15.93290123	      0.00000000	      0.20730776	      0.19585710	      0.90157468	      0.38499123	      0.26048995	      0.95792310	      0.34058591	      0.47620696	      0.95792310	      0.23693203	      0.47620696	      0.78887784	      0.19250598	      0.39939181	      0.73252943	      0.11845565	      0.30338265	      0.67618101	      1.48077857	      2.21557473	      5.01428789	      0.00000000	      0.00000000	     26.48703115	     -2.88697975	     -6.24356162	     10.94995294	     -8.96634887	     67.55685878	     41.10440457	     86.72636983	     -8.29576120	     -0.38303090	     14.95076687	     -9.22840137	     67.31007927	     43.79632441	     61.75493967	      5.78635272	     13.28408452
      2.16949153	      1.53660373	     -9.43740175	     88.30690663	      0.17248114	      0.95513076	      0.31107325	     -1.44004303	     -1.02486637	     11.27732407	      0.79961022	      0.01395583	     17.88896183	     -4.71142226	      0.00000000	     -0.70542104	     -2.37692954	    -14.37711590	      1.67664752	      0.02926302	     21.12596086	     15.94207989	      0.00000000	      0.21192239	      0.17896933	      0.91982693	      0.39356107	      0.23802921	      0.97731611	      0.34816730	      0.43514603	      0.97731611	      0.24220610	      0.43514603	      0.80484856	      0.19679113	      0.36495426	      0.74735938	      0.12109245	      0.27722349	      0.68987019	      1.51374044	      2.02453685	      5.11580141	      0.00000000	      0.00000000	     26.33896521	     -3.33066757	     -7.48726055	     10.83450391	     -8.98694447	     67.29682990	     41.31604121	     86.70599940	     -8.18247916	     -0.13191709	     15.14885957	     -9.27308433	     67.91356486	     43.72800107	     61.06944803	      5.93370455	     13.70327535
      2.18644068	      1.41717408	     -9.36860441	     88.34501144	      0.17237849	      0.95499628	      0.31085425	     -1.55676595	     -1.17319654	     11.00125256	      0.82659210	      0.01442675	     18.10719397	     -4.31327600	      0.00000000	     -0.79923223	     -2.23890569	    -14.01596315	      1.65038625	      0.02880467	     21.03794573	     15.58354912	      0.00000000	      0.21891957	      0.15723891	      0.92151608	      0.40655552	      0.20912775	      0.97911084	      0.35966295	      0.38231069	      0.97911084	      0.25020317	      0.38231069	      0.80632657	      0.20328871	      0.32064159	      0.74873182	      0.12509064	      0.24356307	      0.69113706	      1.56372056	      1.77871802	      5.12519599	      0.00000000	      0.00000000	     26.19946525	     -3.74662288	     -8.80043242	     10.80267209	     -8.96980676	     67.23769142	     41.44642406	     86.74941887	     -7.94182285	      0.06165360	     15.33502934	     -9.35336474	     68.61248275	     43.68001325	     60.06577701	      6.14870252	     14.37561962
      2.20338983	      1.31422020	     -9.27029381	     88.31084474	      0.17235213	      0.95496973	      0.31064770	     -1.66471092	     -1.29135244	     10.69151729	      0.87057816	      0.01519446	     18.33629146	     -3.76581831	      0.00000000	     -0.94503204	     -2.11854893	    -13.81946029	      1.60136737	      0.02794913	     20.85574788	     15.32018519	      0.00000000	      0.22253327	      0.14084444	      0.94875587	      0.41326654	      0.18732311	      1.00805311	      0.36559991	      0.34244918	      1.00805311	      0.25433328	      0.34244918	      0.83016139	      0.20664440	      0.28720999	      0.77086415	      0.12715551	      0.21816804	      0.71156690	      1.58953291	      1.59326051	      5.27669553	      0.00000000	      0.00000000	     26.12332241	     -3.97866479	     -9.80406218	     10.76505807	     -8.95684965	     66.94336728	     41.51229276	     86.92178887	     -7.21492243	      0.38657591	     15.54667836	     -9.34202185	     69.41379119	     43.49753156	     58.89922808	      6.54714347	     15.11573390
